HIERARCHY
ROOT hip
{
  OFFSET 0.00112043 5.09927 -9.65472
  CHANNELS 6 Xposition Yposition Zposition Zrotation Xrotation Yrotation
  JOINT abdomen
  {
    OFFSET 0 -1.186 -1.5018
    CHANNELS 3 Zrotation Xrotation Yrotation
    JOINT abdomen2
    {
      OFFSET 0 9.964 0.2134
      CHANNELS 3 Zrotation Xrotation Yrotation
      JOINT chest
      {
        OFFSET 0 13.134 -3.2573
        CHANNELS 3 Zrotation Xrotation Yrotation
        JOINT neck
        {
          OFFSET 0 20.686 -1.6905
          CHANNELS 3 Zrotation Xrotation Yrotation
          JOINT head
          {
            OFFSET 0 7.238 -0.1237
            CHANNELS 3 Zrotation Xrotation Yrotation
            End Site
            {
              OFFSET 0 0 0
            }
          }
        }
        JOINT lCollar
        {
          OFFSET 1.7069 20.075 5.0056
          CHANNELS 3 Zrotation Xrotation Yrotation
          JOINT lShldr
          {
            OFFSET 13.6458 -0.047 -4.849
            CHANNELS 3 Zrotation Xrotation Yrotation
            JOINT lForeArm
            {
              OFFSET 28.3255 -0.9759 2.2888
              CHANNELS 3 Zrotation Xrotation Yrotation
              JOINT lHand
              {
                OFFSET 22.1583 -0.53 10.8316
                CHANNELS 3 Zrotation Xrotation Yrotation
                JOINT lThumb1
                {
                  OFFSET 0.786 0.112 2.5817
                  CHANNELS 3 Zrotation Xrotation Yrotation
                  JOINT lThumb2
                  {
                    OFFSET 0.3601 -0.878 4.2331
                    CHANNELS 3 Zrotation Xrotation Yrotation
                    JOINT lThumb2_End
                    {
                      OFFSET 1.8127 -1.216 2.2227
                      CHANNELS 3 Zrotation Xrotation Yrotation
                      End Site
                      {
                        OFFSET 0.0181 -0.0122 0.0222
                      }
                    }
                  }
                }
                JOINT lCarpal1
                {
                  OFFSET 0.9571 1.114 1.7695
                  CHANNELS 3 Zrotation Xrotation Yrotation
                  JOINT lIndex1
                  {
                    OFFSET 4.1246 0.487 4.1451
                    CHANNELS 3 Zrotation Xrotation Yrotation
                    JOINT lIndex2
                    {
                      OFFSET 3.4052 -1.454 2.7682
                      CHANNELS 3 Zrotation Xrotation Yrotation
                      JOINT lIndex2_End
                      {
                        OFFSET 1.4531 -1.795 1.2713
                        CHANNELS 3 Zrotation Xrotation Yrotation
                        End Site
                        {
                          OFFSET 0.0145 -0.0179 0.0127
                        }
                      }
                    }
                  }
                  JOINT lMid1
                  {
                    OFFSET 5.6954 0.21 2.1184
                    CHANNELS 3 Zrotation Xrotation Yrotation
                    JOINT lMid2
                    {
                      OFFSET 3.9766 -1.54 2.3863
                      CHANNELS 3 Zrotation Xrotation Yrotation
                      JOINT lMid2_End
                      {
                        OFFSET 1.4042 -1.926 1.125
                        CHANNELS 3 Zrotation Xrotation Yrotation
                        End Site
                        {
                          OFFSET 0.014 -0.0193 0.0113
                        }
                      }
                    }
                  }
                }
                JOINT lCarpal2
                {
                  OFFSET 2.0956 0.66 -0.3894
                  CHANNELS 3 Zrotation Xrotation Yrotation
                  JOINT lRing1
                  {
                    OFFSET 5.0395 -0.09 2.4971
                    CHANNELS 3 Zrotation Xrotation Yrotation
                    JOINT lRing2
                    {
                      OFFSET 3.7921 -1.552 1.4806
                      CHANNELS 3 Zrotation Xrotation Yrotation
                      JOINT lRing2_End
                      {
                        OFFSET 1.4655 -1.808 0.9609
                        CHANNELS 3 Zrotation Xrotation Yrotation
                        End Site
                        {
                          OFFSET 0.0147 -0.0181 0.0096
                        }
                      }
                    }
                  }
                  JOINT lPinky1
                  {
                    OFFSET 4.9141 -1.269 0.3591
                    CHANNELS 3 Zrotation Xrotation Yrotation
                    JOINT lPinky2
                    {
                      OFFSET 3.1477 -1.685 0.8462
                      CHANNELS 3 Zrotation Xrotation Yrotation
                      JOINT lPinky2_End
                      {
                        OFFSET 0.8055 -1.585 0.7955
                        CHANNELS 3 Zrotation Xrotation Yrotation
                        End Site
                        {
                          OFFSET 0.0081 -0.0158 0.008
                        }
                      }
                    }
                  }
                }
              }
            }
          }
        }
        JOINT rCollar
        {
          OFFSET -1.7069 20.075 5.0056
          CHANNELS 3 Zrotation Xrotation Yrotation
          JOINT rShldr
          {
            OFFSET -13.6458 -0.047 -4.849
            CHANNELS 3 Zrotation Xrotation Yrotation
            JOINT rForeArm
            {
              OFFSET -28.3255 -0.9759 2.2888
              CHANNELS 3 Zrotation Xrotation Yrotation
              JOINT rHand
              {
                OFFSET -22.1583 -0.53 10.8316
                CHANNELS 3 Zrotation Xrotation Yrotation
                JOINT rThumb1
                {
                  OFFSET -0.786 0.112 2.5817
                  CHANNELS 3 Zrotation Xrotation Yrotation
                  JOINT rThumb2
                  {
                    OFFSET -0.3601 -0.878 4.2331
                    CHANNELS 3 Zrotation Xrotation Yrotation
                    JOINT rThumb2_End
                    {
                      OFFSET -1.8127 -1.216 2.2227
                      CHANNELS 3 Zrotation Xrotation Yrotation
                      End Site
                      {
                        OFFSET -0.0181 -0.0122 0.0222
                      }
                    }
                  }
                }
                JOINT rCarpal1
                {
                  OFFSET -0.9571 1.114 1.7695
                  CHANNELS 3 Zrotation Xrotation Yrotation
                  JOINT rIndex1
                  {
                    OFFSET -4.1246 0.487 4.1451
                    CHANNELS 3 Zrotation Xrotation Yrotation
                    JOINT rIndex2
                    {
                      OFFSET -3.4052 -1.454 2.7682
                      CHANNELS 3 Zrotation Xrotation Yrotation
                      JOINT rIndex2_End
                      {
                        OFFSET -1.4531 -1.795 1.2713
                        CHANNELS 3 Zrotation Xrotation Yrotation
                        End Site
                        {
                          OFFSET -0.0145 -0.018 0.0127
                        }
                      }
                    }
                  }
                  JOINT rMid1
                  {
                    OFFSET -5.6954 0.21 2.1184
                    CHANNELS 3 Zrotation Xrotation Yrotation
                    JOINT rMid2
                    {
                      OFFSET -3.9766 -1.54 2.3863
                      CHANNELS 3 Zrotation Xrotation Yrotation
                      JOINT rMid2_End
                      {
                        OFFSET -1.4042 -1.926 1.125
                        CHANNELS 3 Zrotation Xrotation Yrotation
                        End Site
                        {
                          OFFSET -0.014 -0.0193 0.0113
                        }
                      }
                    }
                  }
                }
                JOINT rCarpal2
                {
                  OFFSET -2.0956 0.66 -0.3894
                  CHANNELS 3 Zrotation Xrotation Yrotation
                  JOINT rRing1
                  {
                    OFFSET -5.0395 -0.09 2.4971
                    CHANNELS 3 Zrotation Xrotation Yrotation
                    JOINT rRing2
                    {
                      OFFSET -3.7921 -1.552 1.4806
                      CHANNELS 3 Zrotation Xrotation Yrotation
                      JOINT rRing2_End
                      {
                        OFFSET -1.4655 -1.808 0.9609
                        CHANNELS 3 Zrotation Xrotation Yrotation
                        End Site
                        {
                          OFFSET -0.0147 -0.0181 0.0096
                        }
                      }
                    }
                  }
                  JOINT rPinky1
                  {
                    OFFSET -4.9141 -1.269 0.3592
                    CHANNELS 3 Zrotation Xrotation Yrotation
                    JOINT rPinky2
                    {
                      OFFSET -3.1477 -1.685 0.8462
                      CHANNELS 3 Zrotation Xrotation Yrotation
                      JOINT rPinky2_End
                      {
                        OFFSET -0.8055 -1.585 0.7955
                        CHANNELS 3 Zrotation Xrotation Yrotation
                        End Site
                        {
                          OFFSET -0.0081 -0.0158 0.008
                        }
                      }
                    }
                  }
                }
              }
            }
          }
        }
      }
    }
  }
  JOINT lThigh
  {
    OFFSET 8.367 -8.2066 0.5982
    CHANNELS 3 Zrotation Xrotation Yrotation
    JOINT lShin
    {
      OFFSET 2.1923 -43.463 -0.4932
      CHANNELS 3 Zrotation Xrotation Yrotation
      JOINT lFoot
      {
        OFFSET 0.7333 -45.8593 -2.6451
        CHANNELS 3 Zrotation Xrotation Yrotation
        End Site
        {
          OFFSET 2.6618 -4.2699 12.3931
        }
      }
    }
  }
  JOINT rThigh
  {
    OFFSET -8.367 -8.2066 0.5982
    CHANNELS 3 Zrotation Xrotation Yrotation
    JOINT rShin
    {
      OFFSET -2.1923 -43.463 -0.4931
      CHANNELS 3 Zrotation Xrotation Yrotation
      JOINT rFoot
      {
        OFFSET -0.7333 -45.8593 -2.6451
        CHANNELS 3 Zrotation Xrotation Yrotation
        End Site
        {
          OFFSET -2.6618 -4.2699 12.3931
        }
      }
    }
  }
}
MOTION
Frames:	4
Frame Time:	0.0333333
-8.23042 31.0712 -13.2608 -0 -17.8414 -0 0.196173 5.7595 2.99944 0.0880434 11.5213 6.025 0.0880432 11.5213 6.025 -16.9602 -27.4466 -21.0019 -12.9818 5.45376 -5.64542 25.3978 -0.697203 -71.6954 -34.6577 -15.901 -5.82393 -58.3448 -21.4875 -72.2173 -14.6548 38.4019 6.46227 -7.83506e-007 -1.92428e-006 1.23316e-006 2.93443e-007 -1.57578e-006 1.84224e-006 -3.18055e-015 -1.98785e-015 1.98785e-015 3.18055e-015 -4.77083e-015 -1.98785e-015 -7.83506e-007 -1.92428e-006 1.23316e-006 2.93443e-007 -1.57578e-006 1.84224e-006 -2.20695e-032 -7.95139e-016 -1.59028e-015 -7.83506e-007 -1.92428e-006 1.23316e-006 2.93443e-007 -1.57578e-006 1.84224e-006 -2.20695e-032 -7.95139e-016 -1.59028e-015 3.18055e-015 -4.77083e-015 -1.98785e-015 -7.83506e-007 -1.92428e-006 1.23316e-006 2.93443e-007 -1.57578e-006 1.84224e-006 -2.20695e-032 -7.95139e-016 -1.59028e-015 -7.83506e-007 -1.92428e-006 1.23316e-006 2.93443e-007 -1.57578e-006 1.84224e-006 -2.20695e-032 -7.95139e-016 -1.59028e-015 -2.72357 -27.8607 9.88579 72.5971 5.0048 15.2496 -15.2948 -7.52241 21.504 65.9415 24.4575 -25.7654 -6.36111e-015 -1.59028e-015 -1.78906e-015 -6.36111e-015 -7.95139e-016 -5.96354e-016 -3.18055e-015 3.18055e-015 -3.18055e-015 -1.59028e-015 -3.18055e-015 9.93923e-016 -4.77083e-015 -1.59028e-015 1.17283e-014 -7.95139e-015 -2.38542e-015 -3.77691e-015 -3.18055e-015 -7.95139e-016 -2.98177e-015 -4.77083e-015 -1.59028e-015 1.17283e-014 -7.95139e-015 -2.38542e-015 -3.77691e-015 -3.18055e-015 -7.95139e-016 -2.98177e-015 -1.59028e-015 -3.18055e-015 9.93923e-016 -4.77083e-015 -1.59028e-015 1.17283e-014 -7.95139e-015 -2.38542e-015 -3.77691e-015 -3.18055e-015 -7.95139e-016 -2.98177e-015 -4.77083e-015 -1.59028e-015 1.17283e-014 -7.95139e-015 -2.38542e-015 -3.77691e-015 -3.18055e-015 -7.95139e-016 -2.98177e-015 107.751 -29.8131 105.283 157.485 55.6447 -142.945 -10.4111 -1.25702 -24.2436 -95.7394 -39.7411 -110.955 -163.123 45.2786 146.18 8.14553 -25.2725 13.8351 
-8.23676 30.9813 -13.1979 -0 -17.0109 -0 0.162502 5.47914 3.00501 0.0349116 10.9593 6.03606 0.0349114 10.9593 6.03606 -16.9621 -27.4587 -21.0061 -13.0694 5.84562 -5.64716 25.4909 -0.267517 -71.7954 -34.8126 -15.8491 -5.86617 -58.3346 -21.334 -72.2464 -14.6548 38.4019 6.46228 -6.37258e-031 -2.78299e-015 -1.31198e-014 -1.24301e-006 7.67399e-007 8.75763e-007 -2.88155e-006 1.02595e-007 -5.40992e-006 3.18055e-015 3.97569e-016 -6.75868e-015 6.36111e-015 0 -7.55382e-015 -1.24301e-006 7.67399e-007 8.75763e-007 -2.88155e-006 1.02595e-007 -5.40992e-006 6.36111e-015 0 -7.55382e-015 -1.24301e-006 7.67399e-007 8.75763e-007 -2.88155e-006 1.02595e-007 -5.40992e-006 3.18055e-015 3.97569e-016 -6.75868e-015 6.36111e-015 0 -7.55382e-015 -1.24301e-006 7.67399e-007 8.75763e-007 -2.88155e-006 1.02595e-007 -5.40992e-006 6.36111e-015 0 -7.55382e-015 -1.24301e-006 7.67399e-007 8.75763e-007 -2.88155e-006 1.02595e-007 -5.40992e-006 -2.6535 -27.3211 9.71364 72.7559 5.08024 15.2336 -15.3031 -7.5297 21.4951 65.9497 24.4469 -25.7603 -3.96247e-006 3.56671e-006 -2.74039e-006 3.86217e-032 7.95139e-016 -2.78299e-015 1.9474e-006 -5.2004e-006 4.71803e-006 1.59028e-015 7.95139e-016 -1.98785e-016 -3.96247e-006 3.56671e-006 -2.74039e-006 1.59028e-015 -7.95139e-016 -0 1.9474e-006 -5.2004e-006 4.71803e-006 -3.96247e-006 3.56671e-006 -2.74039e-006 1.59028e-015 -7.95139e-016 -0 1.9474e-006 -5.2004e-006 4.71803e-006 1.59028e-015 7.95139e-016 -1.98785e-016 -3.96247e-006 3.56671e-006 -2.74039e-006 1.59028e-015 -7.95139e-016 -0 1.9474e-006 -5.2004e-006 4.71803e-006 -3.96247e-006 3.56671e-006 -2.74039e-006 1.59028e-015 -7.95139e-016 -0 1.9474e-006 -5.2004e-006 4.71803e-006 108.384 -30.1792 106.067 157.476 55.6495 -142.904 -10.8636 -1.19674 -23.8638 -96.6913 -40.2071 -112.111 -163.133 45.2567 146.149 8.40228 -25.2186 13.4991 
-8.24283 30.8896 -13.1353 -0 -16.1807 -0 0.128917 5.19889 3.01008 -0.017913 10.3974 6.04596 -0.0179128 10.3974 6.04596 -16.9645 -27.4716 -21.0105 -13.0577 5.33054 -5.76724 25.5847 0.162035 -71.8962 -34.9673 -15.7971 -5.90826 -58.3244 -21.1806 -72.2756 -14.6548 38.4019 6.46227 -1.07967e-006 3.08761e-006 1.16981e-007 1.24348e-006 -7.65935e-007 -8.76515e-007 -9.248e-007 1.95032e-006 -1.42769e-006 3.18055e-015 2.78299e-015 -0 -1.07967e-006 3.08761e-006 1.16981e-007 1.24348e-006 -7.65935e-007 -8.76515e-007 -9.248e-007 1.95032e-006 -1.42769e-006 -1.07967e-006 3.08761e-006 1.16981e-007 1.24348e-006 -7.65935e-007 -8.76515e-007 -9.248e-007 1.95032e-006 -1.42769e-006 3.18055e-015 2.78299e-015 -0 -1.07967e-006 3.08761e-006 1.16981e-007 1.24348e-006 -7.65935e-007 -8.76515e-007 -9.248e-007 1.95032e-006 -1.42769e-006 -1.07967e-006 3.08761e-006 1.16981e-007 1.24348e-006 -7.65935e-007 -8.76515e-007 -9.248e-007 1.95032e-006 -1.42769e-006 -2.58195 -26.7817 9.54164 72.9146 5.15564 15.2175 -15.3115 -7.537 21.4862 65.9578 24.4364 -25.7552 1.59028e-015 1.59028e-015 -3.37934e-015 -2.013e-006 -1.63346e-006 1.98076e-006 3.18055e-015 -6.36111e-015 5.36719e-015 1.59028e-015 1.59028e-015 -3.37934e-015 1.71039e-031 -1.59028e-015 6.16232e-015 -2.013e-006 -1.63346e-006 1.98076e-006 1.59028e-015 -1.59028e-015 1.98785e-016 1.71039e-031 -1.59028e-015 6.16232e-015 -2.013e-006 -1.63346e-006 1.98076e-006 1.59028e-015 -1.59028e-015 1.98785e-016 1.59028e-015 1.59028e-015 -3.37934e-015 1.71039e-031 -1.59028e-015 6.16232e-015 -2.013e-006 -1.63346e-006 1.98076e-006 1.59028e-015 -1.59028e-015 1.98785e-016 1.71039e-031 -1.59028e-015 6.16232e-015 -2.013e-006 -1.63346e-006 1.98076e-006 1.59028e-015 -1.59028e-015 1.98785e-016 109.029 -30.5374 106.858 157.468 55.6539 -142.864 -11.3171 -1.13744 -23.4835 -97.6646 -40.6582 -113.285 -163.143 45.2349 146.119 8.65996 -25.1634 13.1629 
-8.24862 30.7961 -13.0729 -0 -15.3508 -0 0.095419 4.91873 3.01466 -0.0704492 9.83564 6.05473 -0.0704479 9.83563 6.05473 -16.9659 -27.4834 -21.0146 -13.0471 4.8141 -5.88742 25.6793 0.591283 -71.9976 -35.122 -15.7449 -5.95019 -58.3142 -21.0272 -72.3048 -14.6548 38.4019 6.46229 6.21973e-007 -3.82229e-007 -4.38635e-007 2.75869e-032 3.97569e-016 -3.97569e-015 6.21973e-007 -3.82229e-007 -4.38635e-007 6.36111e-015 5.56597e-015 9.54166e-015 6.21973e-007 -3.82229e-007 -4.38635e-007 -2.20695e-032 -1.59028e-015 -7.95139e-016 6.21973e-007 -3.82229e-007 -4.38635e-007 6.21973e-007 -3.82229e-007 -4.38635e-007 -2.20695e-032 -1.59028e-015 -7.95139e-016 6.21973e-007 -3.82229e-007 -4.38635e-007 6.36111e-015 5.56597e-015 9.54166e-015 6.21973e-007 -3.82229e-007 -4.38635e-007 -2.20695e-032 -1.59028e-015 -7.95139e-016 6.21973e-007 -3.82229e-007 -4.38635e-007 6.21973e-007 -3.82229e-007 -4.38635e-007 -2.20695e-032 -1.59028e-015 -7.95139e-016 6.21973e-007 -3.82229e-007 -4.38635e-007 -2.50897 -26.2427 9.36967 73.0735 5.23098 15.2011 -15.32 -7.54431 21.4772 65.966 24.4259 -25.7502 -3.18055e-015 3.18055e-015 -4.17448e-015 -4.77083e-015 3.18055e-015 -3.77691e-015 -3.18055e-015 1.59028e-015 -1.98785e-016 -1.59028e-015 0 -4.37326e-015 -3.14491e-031 1.59028e-015 1.13307e-014 -1.59028e-015 4.77083e-015 -1.19271e-015 -4.77083e-015 1.59028e-015 -1.59028e-015 -3.14491e-031 1.59028e-015 1.13307e-014 -1.59028e-015 4.77083e-015 -1.19271e-015 -4.77083e-015 1.59028e-015 -1.59028e-015 -1.59028e-015 0 -4.37326e-015 -3.14491e-031 1.59028e-015 1.13307e-014 -1.59028e-015 4.77083e-015 -1.19271e-015 -4.77083e-015 1.59028e-015 -1.59028e-015 -3.14491e-031 1.59028e-015 1.13307e-014 -1.59028e-015 4.77083e-015 -1.19271e-015 -4.77083e-015 1.59028e-015 -1.59028e-015 109.683 -30.8873 107.657 157.46 55.6579 -142.825 -11.7714 -1.07934 -23.1026 -98.6593 -41.0936 -114.476 -163.154 45.2129 146.089 8.91853 -25.1068 12.8267 
